<svg width="191" height="32" viewBox="0 0 191 32" fill="none" xmlns="http://www.w3.org/2000/svg">
<path d="M17.3029 17.733C10.1501 21.1837 13.5092 36.7609 8.70287 30.0535C3.89656 23.3461 5.79878 15.1113 12.9516 11.6606C20.1044 8.2099 29.7992 10.85 34.6055 17.5574C39.4118 24.2648 24.4557 14.2823 17.3029 17.733Z" fill="#2E7D32"/>
<path d="M16.8616 13.7325C18.2758 20.4411 37.2259 23.3529 27.8817 24.679C18.5376 26.0051 9.81623 21.6417 8.40208 14.933C6.98792 8.22438 13.4165 1.71093 22.7606 0.384836C32.1048 -0.941262 15.4475 7.02382 16.8616 13.7325Z" fill="#2E7D32"/>
<path d="M57.1634 9.95466C56.7794 9.25066 56.2514 8.71466 55.5794 8.34666C54.9074 7.97866 54.1234 7.79466 53.2274 7.79466C52.2354 7.79466 51.3554 8.01866 50.5874 8.46666C49.8194 8.91466 49.2194 9.55466 48.7874 10.3867C48.3554 11.2187 48.1394 12.1787 48.1394 13.2667C48.1394 14.3867 48.3554 15.3627 48.7874 16.1947C49.2354 17.0267 49.8514 17.6667 50.6354 18.1147C51.4194 18.5627 52.3314 18.7867 53.3714 18.7867C54.6514 18.7867 55.6994 18.4507 56.5154 17.7787C57.3314 17.0907 57.8674 16.1387 58.1234 14.9227H52.3634V12.3547H61.4354V15.2827C61.2114 16.4507 60.7314 17.5307 59.9954 18.5227C59.2594 19.5147 58.3074 20.3147 57.1394 20.9227C55.9874 21.5147 54.6914 21.8107 53.2514 21.8107C51.6354 21.8107 50.1714 21.4507 48.8594 20.7307C47.5634 19.9947 46.5394 18.9787 45.7874 17.6827C45.0514 16.3867 44.6834 14.9147 44.6834 13.2667C44.6834 11.6187 45.0514 10.1467 45.7874 8.85066C46.5394 7.53866 47.5634 6.52266 48.8594 5.80266C50.1714 5.06666 51.6274 4.69866 53.2274 4.69866C55.1154 4.69866 56.7554 5.16266 58.1474 6.09066C59.5394 7.00266 60.4994 8.29066 61.0274 9.95466H57.1634ZM67.2813 10.4347C67.7133 9.73066 68.2733 9.17866 68.9613 8.77866C69.6653 8.37866 70.4653 8.17866 71.3613 8.17866V11.7067H70.4733C69.4173 11.7067 68.6173 11.9547 68.0733 12.4507C67.5453 12.9467 67.2813 13.8107 67.2813 15.0427V21.6667H63.9213V8.37066H67.2813V10.4347ZM85.9844 14.7307C85.9844 15.2107 85.9524 15.6427 85.8884 16.0267H76.1684C76.2484 16.9867 76.5844 17.7387 77.1764 18.2827C77.7684 18.8267 78.4964 19.0987 79.3604 19.0987C80.6084 19.0987 81.4964 18.5627 82.0244 17.4907H85.6484C85.2644 18.7707 84.5284 19.8267 83.4404 20.6587C82.3524 21.4747 81.0164 21.8827 79.4324 21.8827C78.1524 21.8827 77.0004 21.6027 75.9764 21.0427C74.9684 20.4667 74.1764 19.6587 73.6004 18.6187C73.0404 17.5787 72.7604 16.3787 72.7604 15.0187C72.7604 13.6427 73.0404 12.4347 73.6004 11.3947C74.1604 10.3547 74.9444 9.55466 75.9524 8.99466C76.9604 8.43466 78.1204 8.15466 79.4324 8.15466C80.6964 8.15466 81.8244 8.42666 82.8164 8.97066C83.8244 9.51466 84.6004 10.2907 85.1444 11.2987C85.7044 12.2907 85.9844 13.4347 85.9844 14.7307ZM82.5044 13.7707C82.4884 12.9067 82.1764 12.2187 81.5684 11.7067C80.9604 11.1787 80.2164 10.9147 79.3364 10.9147C78.5044 10.9147 77.8004 11.1707 77.2244 11.6827C76.6644 12.1787 76.3204 12.8747 76.1924 13.7707H82.5044ZM100.797 14.7307C100.797 15.2107 100.765 15.6427 100.701 16.0267H90.9809C91.0609 16.9867 91.3969 17.7387 91.9889 18.2827C92.5809 18.8267 93.3089 19.0987 94.1729 19.0987C95.4209 19.0987 96.3089 18.5627 96.8369 17.4907H100.461C100.077 18.7707 99.3409 19.8267 98.2529 20.6587C97.1649 21.4747 95.8289 21.8827 94.2449 21.8827C92.9649 21.8827 91.8129 21.6027 90.7889 21.0427C89.7809 20.4667 88.9889 19.6587 88.4129 18.6187C87.8529 17.5787 87.5729 16.3787 87.5729 15.0187C87.5729 13.6427 87.8529 12.4347 88.4129 11.3947C88.9729 10.3547 89.7569 9.55466 90.7649 8.99466C91.7729 8.43466 92.9329 8.15466 94.2449 8.15466C95.5089 8.15466 96.6369 8.42666 97.6289 8.97066C98.6369 9.51466 99.4129 10.2907 99.9569 11.2987C100.517 12.2907 100.797 13.4347 100.797 14.7307ZM97.3169 13.7707C97.3009 12.9067 96.9889 12.2187 96.3809 11.7067C95.7729 11.1787 95.0289 10.9147 94.1489 10.9147C93.3169 10.9147 92.6129 11.1707 92.0369 11.6827C91.4769 12.1787 91.1329 12.8747 91.0049 13.7707H97.3169ZM110.617 8.17866C112.201 8.17866 113.481 8.68266 114.457 9.69066C115.433 10.6827 115.921 12.0747 115.921 13.8667V21.6667H112.561V14.3227C112.561 13.2667 112.297 12.4587 111.769 11.8987C111.241 11.3227 110.521 11.0347 109.609 11.0347C108.681 11.0347 107.945 11.3227 107.401 11.8987C106.873 12.4587 106.609 13.2667 106.609 14.3227V21.6667H103.249V8.37066H106.609V10.0267C107.057 9.45066 107.625 9.00266 108.313 8.68266C109.017 8.34666 109.785 8.17866 110.617 8.17866ZM118.301 13.2667C118.301 11.6187 118.669 10.1467 119.405 8.85066C120.157 7.53866 121.173 6.52266 122.453 5.80266C123.749 5.06666 125.197 4.69866 126.797 4.69866C128.669 4.69866 130.309 5.17866 131.717 6.13866C133.125 7.09866 134.109 8.42666 134.669 10.1227H130.805C130.421 9.32266 129.877 8.72266 129.173 8.32266C128.485 7.92266 127.685 7.72266 126.773 7.72266C125.797 7.72266 124.925 7.95466 124.157 8.41866C123.405 8.86666 122.813 9.50666 122.381 10.3387C121.965 11.1707 121.757 12.1467 121.757 13.2667C121.757 14.3707 121.965 15.3467 122.381 16.1947C122.813 17.0267 123.405 17.6747 124.157 18.1387C124.925 18.5867 125.797 18.8107 126.773 18.8107C127.685 18.8107 128.485 18.6107 129.173 18.2107C129.877 17.7947 130.421 17.1867 130.805 16.3867H134.669C134.109 18.0987 133.125 19.4347 131.717 20.3947C130.325 21.3387 128.685 21.8107 126.797 21.8107C125.197 21.8107 123.749 21.4507 122.453 20.7307C121.173 19.9947 120.157 18.9787 119.405 17.6827C118.669 16.3867 118.301 14.9147 118.301 13.2667ZM143.442 21.8827C142.162 21.8827 141.01 21.6027 139.986 21.0427C138.962 20.4667 138.154 19.6587 137.562 18.6187C136.986 17.5787 136.698 16.3787 136.698 15.0187C136.698 13.6587 136.994 12.4587 137.586 11.4187C138.194 10.3787 139.018 9.57866 140.058 9.01866C141.098 8.44266 142.258 8.15466 143.538 8.15466C144.818 8.15466 145.978 8.44266 147.018 9.01866C148.058 9.57866 148.874 10.3787 149.466 11.4187C150.074 12.4587 150.378 13.6587 150.378 15.0187C150.378 16.3787 150.066 17.5787 149.442 18.6187C148.834 19.6587 148.002 20.4667 146.946 21.0427C145.906 21.6027 144.738 21.8827 143.442 21.8827ZM143.442 18.9547C144.05 18.9547 144.618 18.8107 145.146 18.5227C145.69 18.2187 146.122 17.7707 146.442 17.1787C146.762 16.5867 146.922 15.8667 146.922 15.0187C146.922 13.7547 146.586 12.7867 145.914 12.1147C145.258 11.4267 144.45 11.0827 143.49 11.0827C142.53 11.0827 141.722 11.4267 141.066 12.1147C140.426 12.7867 140.106 13.7547 140.106 15.0187C140.106 16.2827 140.418 17.2587 141.042 17.9467C141.682 18.6187 142.482 18.9547 143.442 18.9547ZM151.979 14.9707C151.979 13.6267 152.243 12.4347 152.771 11.3947C153.315 10.3547 154.051 9.55466 154.979 8.99466C155.907 8.43466 156.939 8.15466 158.075 8.15466C158.939 8.15466 159.763 8.34666 160.547 8.73066C161.331 9.09866 161.955 9.59466 162.419 10.2187V3.90666H165.827V21.6667H162.419V19.6987C162.003 20.3547 161.419 20.8827 160.667 21.2827C159.915 21.6827 159.043 21.8827 158.051 21.8827C156.931 21.8827 155.907 21.5947 154.979 21.0187C154.051 20.4427 153.315 19.6347 152.771 18.5947C152.243 17.5387 151.979 16.3307 151.979 14.9707ZM162.443 15.0187C162.443 14.2027 162.283 13.5067 161.963 12.9307C161.643 12.3387 161.211 11.8907 160.667 11.5867C160.123 11.2667 159.539 11.1067 158.915 11.1067C158.291 11.1067 157.715 11.2587 157.187 11.5627C156.659 11.8667 156.227 12.3147 155.891 12.9067C155.571 13.4827 155.411 14.1707 155.411 14.9707C155.411 15.7707 155.571 16.4747 155.891 17.0827C156.227 17.6747 156.659 18.1307 157.187 18.4507C157.731 18.7707 158.307 18.9307 158.915 18.9307C159.539 18.9307 160.123 18.7787 160.667 18.4747C161.211 18.1547 161.643 17.7067 161.963 17.1307C162.283 16.5387 162.443 15.8347 162.443 15.0187ZM181.469 14.7307C181.469 15.2107 181.437 15.6427 181.373 16.0267H171.653C171.733 16.9867 172.069 17.7387 172.661 18.2827C173.253 18.8267 173.981 19.0987 174.845 19.0987C176.093 19.0987 176.981 18.5627 177.509 17.4907H181.133C180.749 18.7707 180.013 19.8267 178.925 20.6587C177.837 21.4747 176.501 21.8827 174.917 21.8827C173.637 21.8827 172.485 21.6027 171.461 21.0427C170.453 20.4667 169.661 19.6587 169.085 18.6187C168.525 17.5787 168.245 16.3787 168.245 15.0187C168.245 13.6427 168.525 12.4347 169.085 11.3947C169.645 10.3547 170.429 9.55466 171.437 8.99466C172.445 8.43466 173.605 8.15466 174.917 8.15466C176.181 8.15466 177.309 8.42666 178.301 8.97066C179.309 9.51466 180.085 10.2907 180.629 11.2987C181.189 12.2907 181.469 13.4347 181.469 14.7307ZM177.989 13.7707C177.973 12.9067 177.661 12.2187 177.053 11.7067C176.445 11.1787 175.701 10.9147 174.821 10.9147C173.989 10.9147 173.285 11.1707 172.709 11.6827C172.149 12.1787 171.805 12.8747 171.677 13.7707H177.989Z" fill="black"/>
</svg>
