<svg width="16" height="16" viewBox="0 0 16 16" fill="none" xmlns="http://www.w3.org/2000/svg">
<path d="M11.8834 3.358C11.224 2.59144 10.8786 1.60104 10.9061 0.592723L8.44226 0.533203C8.44226 0.533203 8.44226 0.638323 8.44226 0.780083V10.6602C8.47666 13.786 3.5381 13.7102 3.92882 10.2551C4.1677 8.88136 5.64386 8.03592 6.95554 8.51384V5.99992C4.09986 5.50264 1.39362 7.7756 1.4221 10.6713C1.6717 16.9513 10.6791 16.9521 10.929 10.6713C10.8661 10.4465 10.9013 6.26152 10.8923 5.90856C12.0127 6.60568 13.3162 6.95416 14.6363 6.90952V4.3132C13.4159 4.3132 12.4845 3.98872 11.8834 3.358Z" fill="#1DC99B"/>
<path d="M11.8834 3.358C11.224 2.59144 10.8786 1.60104 10.9061 0.592723L8.44226 0.533203C8.44226 0.533203 8.44226 0.638323 8.44226 0.780083V10.6602C8.47666 13.786 3.5381 13.7102 3.92882 10.2551C4.1677 8.88136 5.64386 8.03592 6.95554 8.51384V5.99992C4.09986 5.50264 1.39362 7.7756 1.4221 10.6713C1.6717 16.9513 10.6791 16.9521 10.929 10.6713C10.8661 10.4465 10.9013 6.26152 10.8923 5.90856C12.0127 6.60568 13.3162 6.95416 14.6363 6.90952V4.3132C13.4159 4.3132 12.4845 3.98872 11.8834 3.358Z" fill="black"/>
</svg>
