<svg width="68" height="24" viewBox="0 0 68 24" fill="none" xmlns="http://www.w3.org/2000/svg">
<g clip-path="url(#clip0_607_2592)">
<path d="M16.9663 1.86808C15.8777 0.605932 13.9098 0.0648193 11.3924 0.0648193H4.08617C3.83709 0.0647803 3.59616 0.155154 3.40673 0.319684C3.2173 0.484215 3.0918 0.712103 3.05281 0.962356L0.0106258 20.5889C-0.0498429 20.9759 0.244766 21.3264 0.630391 21.3264H5.14102L6.27383 14.0174L6.23867 14.2463C6.31938 13.7296 6.75375 13.3486 7.26813 13.3486H9.41156C13.6223 13.3486 16.9195 11.6088 17.8826 6.57605C17.9112 6.4272 17.9359 6.28233 17.9573 6.14079C17.8358 6.07531 17.8358 6.07531 17.9573 6.14079C18.2441 4.28063 17.9554 3.01444 16.9663 1.86808Z" fill="#27346A"/>
<path d="M7.99977 5.4707C8.12305 5.41088 8.25794 5.37992 8.39453 5.3801H14.1225C14.8008 5.3801 15.4334 5.425 16.0116 5.51965C16.1733 5.54591 16.3343 5.57724 16.4941 5.61359C16.7207 5.66446 16.9447 5.72671 17.1652 5.8001C17.4495 5.89666 17.7141 6.00911 17.9574 6.14079C18.2441 4.27992 17.9554 3.01444 16.9663 1.86808C15.877 0.605932 13.9098 0.0648193 11.3924 0.0648193H4.08555C3.57109 0.0648193 3.13344 0.445799 3.05281 0.962356L0.0106263 20.5882C-0.0498425 20.9758 0.244767 21.3258 0.629767 21.3258H5.14102L7.49125 6.16527C7.51438 6.01626 7.57274 5.8752 7.66132 5.75421C7.7499 5.63322 7.86605 5.53593 7.99977 5.4707Z" fill="#27346A"/>
<path d="M17.8826 6.57607C16.9195 11.6081 13.6224 13.3486 9.41156 13.3486H7.2675C6.75313 13.3486 6.31867 13.7297 6.23875 14.2463L4.82945 23.3341C4.7768 23.6728 5.0343 23.9797 5.37117 23.9797H9.17352C9.39133 23.9797 9.60197 23.9006 9.76756 23.7566C9.93316 23.6127 10.0428 23.4134 10.0769 23.1946L10.1139 22.9975L10.8305 18.3774L10.8767 18.1221C10.9108 17.9032 11.0204 17.7039 11.186 17.56C11.3516 17.4161 11.5622 17.337 11.78 17.3369H12.3491C16.0324 17.3369 18.9166 15.8147 19.7594 11.4124C20.1112 9.57265 19.9291 8.03665 18.9985 6.95776C18.7163 6.63098 18.3657 6.3611 17.9573 6.14081C17.9352 6.28306 17.9113 6.42722 17.8826 6.57607Z" fill="#2790C3"/>
<path d="M16.9494 5.73204C16.7992 5.68744 16.6476 5.64795 16.4949 5.61363C16.3349 5.57786 16.174 5.54675 16.0123 5.52033C15.4335 5.42505 14.8013 5.38007 14.1224 5.38007H8.39516C8.25849 5.37983 8.12353 5.41105 8.0004 5.47138C7.8665 5.53637 7.75021 5.6336 7.66158 5.75463C7.57296 5.87566 7.51468 6.01684 7.4918 6.16595L6.27446 14.0174L6.2393 14.2463C6.31938 13.7297 6.75376 13.3486 7.26821 13.3486H9.41227C13.6231 13.3486 16.9201 11.6089 17.8832 6.57609C17.9119 6.42725 17.9359 6.28301 17.9581 6.14084C17.7142 6.00997 17.4501 5.89662 17.1659 5.80078C17.0941 5.77659 17.022 5.75367 16.9495 5.73204" fill="#1F264F"/>
</g>
<path d="M28.1196 11.168C28.1196 11.6627 28.003 12.1293 27.7696 12.568C27.5363 13.0067 27.163 13.366 26.6496 13.646C26.1363 13.9167 25.4783 14.052 24.6756 14.052H22.9116V18H21.3156V8.27H24.6756C25.4223 8.27 26.0523 8.40067 26.5656 8.662C27.0883 8.914 27.4756 9.25933 27.7276 9.698C27.989 10.1367 28.1196 10.6267 28.1196 11.168ZM24.6756 12.75C25.2823 12.75 25.735 12.6147 26.0336 12.344C26.3323 12.064 26.4816 11.672 26.4816 11.168C26.4816 10.104 25.8796 9.572 24.6756 9.572H22.9116V12.75H24.6756ZM29.1098 14.108C29.1098 13.3333 29.2685 12.6473 29.5858 12.05C29.9125 11.4527 30.3511 10.9907 30.9018 10.664C31.4618 10.328 32.0778 10.16 32.7498 10.16C33.3565 10.16 33.8838 10.2813 34.3318 10.524C34.7891 10.7573 35.1531 11.0513 35.4238 11.406V10.286H37.0338V18H35.4238V16.852C35.1531 17.216 34.7845 17.5193 34.3178 17.762C33.8511 18.0047 33.3191 18.126 32.7218 18.126C32.0591 18.126 31.4525 17.958 30.9018 17.622C30.3511 17.2767 29.9125 16.8007 29.5858 16.194C29.2685 15.578 29.1098 14.8827 29.1098 14.108ZM35.4238 14.136C35.4238 13.604 35.3118 13.142 35.0878 12.75C34.8731 12.358 34.5885 12.0593 34.2338 11.854C33.8791 11.6487 33.4965 11.546 33.0858 11.546C32.6751 11.546 32.2925 11.6487 31.9378 11.854C31.5831 12.05 31.2938 12.344 31.0698 12.736C30.8551 13.1187 30.7478 13.576 30.7478 14.108C30.7478 14.64 30.8551 15.1067 31.0698 15.508C31.2938 15.9093 31.5831 16.2173 31.9378 16.432C32.3018 16.6373 32.6845 16.74 33.0858 16.74C33.4965 16.74 33.8791 16.6373 34.2338 16.432C34.5885 16.2267 34.8731 15.928 35.0878 15.536C35.3118 15.1347 35.4238 14.668 35.4238 14.136ZM46.0741 10.286L41.3421 21.626H39.6901L41.2581 17.874L38.2201 10.286H39.9981L42.1681 16.166L44.4221 10.286H46.0741Z" fill="#1F264F"/>
<path d="M54.0825 11.168C54.0825 11.6627 53.9658 12.1293 53.7325 12.568C53.4992 13.0067 53.1258 13.366 52.6125 13.646C52.0992 13.9167 51.4412 14.052 50.6385 14.052H48.8745V18H47.2785V8.27H50.6385C51.3852 8.27 52.0152 8.40067 52.5285 8.662C53.0512 8.914 53.4385 9.25933 53.6905 9.698C53.9518 10.1367 54.0825 10.6267 54.0825 11.168ZM50.6385 12.75C51.2452 12.75 51.6978 12.6147 51.9965 12.344C52.2952 12.064 52.4445 11.672 52.4445 11.168C52.4445 10.104 51.8425 9.572 50.6385 9.572H48.8745V12.75H50.6385ZM55.0727 14.108C55.0727 13.3333 55.2314 12.6473 55.5487 12.05C55.8754 11.4527 56.314 10.9907 56.8647 10.664C57.4247 10.328 58.0407 10.16 58.7127 10.16C59.3194 10.16 59.8467 10.2813 60.2947 10.524C60.752 10.7573 61.116 11.0513 61.3867 11.406V10.286H62.9967V18H61.3867V16.852C61.116 17.216 60.7474 17.5193 60.2807 17.762C59.814 18.0047 59.282 18.126 58.6847 18.126C58.022 18.126 57.4154 17.958 56.8647 17.622C56.314 17.2767 55.8754 16.8007 55.5487 16.194C55.2314 15.578 55.0727 14.8827 55.0727 14.108ZM61.3867 14.136C61.3867 13.604 61.2747 13.142 61.0507 12.75C60.836 12.358 60.5514 12.0593 60.1967 11.854C59.842 11.6487 59.4594 11.546 59.0487 11.546C58.638 11.546 58.2554 11.6487 57.9007 11.854C57.546 12.05 57.2567 12.344 57.0327 12.736C56.818 13.1187 56.7107 13.576 56.7107 14.108C56.7107 14.64 56.818 15.1067 57.0327 15.508C57.2567 15.9093 57.546 16.2173 57.9007 16.432C58.2647 16.6373 58.6474 16.74 59.0487 16.74C59.4594 16.74 59.842 16.6373 60.1967 16.432C60.5514 16.2267 60.836 15.928 61.0507 15.536C61.2747 15.1347 61.3867 14.668 61.3867 14.136ZM66.689 7.64V18H65.093V7.64H66.689Z" fill="#2790C3"/>
<defs>
<clipPath id="clip0_607_2592">
<rect width="20" height="24" fill="white"/>
</clipPath>
</defs>
</svg>
